<?xml version="1.0" standalone="no"?>
<!DOCTYPE svg PUBLIC "-//W3C//DTD SVG 20010904//EN"
 "http://www.w3.org/TR/2001/REC-SVG-20010904/DTD/svg10.dtd">
<svg version="1.0" xmlns="http://www.w3.org/2000/svg"
 width="600.000000pt" height="600.000000pt" viewBox="0 0 600.000000 600.000000"
 preserveAspectRatio="xMidYMid meet">
<metadata>
Created by potrace 1.16, written by Peter Selinger 2001-2019
</metadata>
<g transform="translate(0.000000,600.000000) scale(0.058594,-0.078125)"
fill="#000000" stroke="none">
<path d="M6940 6159 c-125 -18 -498 -52 -760 -69 -602 -37 -1139 -49 -1995
-45 -889 5 -1237 19 -1540 61 -292 41 -305 42 -316 22 -15 -27 -14 -59 4 -213
15 -123 45 -453 68 -745 4 -52 8 -171 9 -265 2 -93 5 -204 9 -245 l6 -75 60
-2 c74 -2 322 -23 353 -29 37 -7 21 -91 -21 -109 -18 -8 -21 -17 -19 -45 1
-19 9 -38 17 -43 8 -4 20 -14 28 -21 14 -14 79 -36 107 -36 11 0 12 2 3 8 -26
16 10 41 74 51 58 9 112 35 113 54 0 4 -11 5 -24 1 -33 -8 -86 29 -121 83 -15
24 -30 42 -33 39 -2 -3 -18 2 -33 11 -24 14 -29 24 -30 58 0 41 -16 132 -18
106 0 -8 -4 -12 -7 -9 -3 4 -1 15 4 25 6 11 7 25 3 32 -7 11 -10 11 -14 0 -3
-8 -6 9 -7 36 -1 35 -4 44 -9 30 -8 -19 -8 -19 -18 0 -10 21 -10 66 0 100 3
11 8 38 12 60 7 39 7 39 20 15 7 -13 10 -31 7 -39 -3 -9 -1 -12 6 -7 7 4 10 2
8 -6 -3 -7 11 -26 31 -42 31 -27 43 -30 110 -32 71 -1 75 0 86 24 11 23 8 28
-31 63 -32 28 -59 41 -108 53 -36 8 -68 17 -71 20 -3 3 2 17 11 30 9 14 16 32
16 41 0 8 8 15 18 15 11 0 13 3 5 8 -20 13 64 66 125 79 31 6 94 12 140 12 50
1 97 7 119 16 36 15 52 9 53 -19 0 -4 10 -6 23 -4 13 2 28 -1 34 -7 17 -19 25
-53 13 -60 -6 -4 -8 -16 -4 -28 4 -12 6 -61 6 -110 -1 -79 1 -87 13 -71 8 11
15 23 15 27 0 4 12 24 28 43 28 36 52 44 52 19 0 -8 7 -15 15 -15 9 0 20 -11
25 -25 7 -20 17 -25 42 -25 l33 -1 -24 -19 c-17 -15 -22 -27 -18 -46 4 -20 1
-25 -12 -21 -9 2 -20 6 -26 7 -27 7 -73 -14 -89 -40 -9 -16 -30 -39 -47 -50
-20 -15 -28 -28 -24 -39 3 -10 -8 -51 -25 -92 -20 -49 -30 -91 -30 -125 l0
-51 78 -6 c42 -4 136 -11 207 -16 72 -6 291 -10 488 -11 278 0 357 -3 357 -12
0 -7 -10 -57 -22 -110 -15 -69 -27 -99 -38 -103 -18 -6 -548 11 -682 22 l-77
6 11 -37 c12 -39 28 -48 28 -15 0 11 3 19 8 17 4 -1 73 -47 154 -100 l146 -97
4 -48 c2 -26 0 -51 -5 -54 -6 -4 -7 -25 -3 -47 3 -25 1 -55 -8 -80 -11 -31
-12 -42 -3 -46 8 -3 7 -8 -5 -15 -19 -13 -40 -71 -37 -103 3 -29 -19 -106 -37
-132 -16 -24 -19 -56 -4 -56 6 0 10 3 10 8 1 4 12 21 25 37 l25 30 -5 -63 c-3
-35 -7 -67 -10 -72 -9 -14 7 -270 17 -264 4 3 8 -4 8 -14 0 -25 -49 -35 -105
-22 -52 12 -55 12 -52 -1 1 -6 -4 -14 -12 -17 -14 -5 -14 7 3 108 6 31 5 32
-5 13 -7 -13 -19 -25 -28 -28 -9 -3 -38 -39 -66 -80 -27 -41 -55 -75 -62 -75
-18 0 -16 27 2 34 8 3 15 12 15 21 0 9 11 38 25 65 14 27 25 59 25 72 0 33 41
142 57 151 7 5 11 12 8 17 -3 5 8 34 25 66 16 32 27 60 25 63 -3 2 -6 2 -8 0
-2 -2 -15 -21 -30 -41 -15 -20 -27 -41 -27 -45 0 -5 -8 -18 -19 -29 -10 -11
-24 -37 -30 -57 -7 -20 -17 -37 -21 -37 -5 0 -12 -22 -16 -50 -7 -56 -17 -63
-33 -22 -9 23 -9 21 -5 -18 4 -33 3 -41 -5 -30 -9 13 -11 11 -11 -7 0 -12 6
-23 12 -25 8 -3 4 -9 -10 -17 -12 -6 -22 -17 -22 -24 0 -19 -53 -75 -74 -79
-18 -3 -18 -5 5 -30 18 -20 36 -28 77 -31 28 -3 52 -2 52 3 0 8 33 22 60 24 8
1 41 6 73 10 39 6 66 5 86 -3 27 -12 28 -13 18 -62 -5 -27 -6 -53 -2 -57 4 -4
10 -1 12 6 3 6 9 12 15 12 6 0 7 -16 3 -41 -7 -38 -5 -41 11 -37 16 4 19 -2
21 -41 0 -25 10 -72 21 -103 l21 -58 -23 -17 c-25 -20 -24 -26 10 -96 29 -59
40 -70 95 -99 30 -15 44 -18 47 -10 2 7 18 12 35 13 24 0 27 2 14 8 -30 11
-34 138 -7 186 12 21 18 46 15 58 -2 12 -2 16 1 10 12 -26 24 -12 24 26 0 22
5 42 13 44 8 4 4 12 -13 26 -29 24 -60 21 -102 -10 -16 -11 -28 -15 -28 -9 0
7 -8 9 -20 5 -23 -7 -28 13 -5 21 21 8 19 34 -2 34 -16 1 -15 3 4 19 15 12 20
25 16 40 -3 11 -9 21 -13 21 -4 0 -7 6 -7 13 3 24 -14 136 -21 141 -4 2 -4 80
1 173 4 92 4 184 1 203 -9 48 -6 90 16 192 20 91 54 178 70 178 18 0 10 18
-10 23 -12 3 -20 14 -20 26 0 12 -4 21 -10 21 -5 0 -10 10 -10 21 0 12 -9 37
-21 55 -11 18 -24 48 -29 65 l-9 32 106 -6 c58 -4 136 -7 173 -7 l67 0 7 -69
c5 -46 12 -71 22 -75 7 -3 14 -12 14 -19 0 -8 21 -32 46 -53 25 -22 51 -44 57
-49 32 -28 80 -42 114 -34 20 4 39 13 43 19 6 9 13 9 30 0 29 -16 127 -5 150
15 14 12 27 13 76 4 82 -14 94 -18 94 -34 0 -15 22 -25 56 -25 13 0 56 14 96
31 40 17 84 36 98 41 14 5 42 18 62 29 20 10 47 19 60 19 26 0 88 35 88 49 0
5 9 13 20 16 26 8 60 75 69 134 6 43 8 46 39 49 l32 3 -6 -68 c-12 -122 -15
-112 48 -147 64 -35 106 -69 129 -106 44 -69 89 -262 89 -384 0 -39 -9 -143
-21 -231 -15 -114 -19 -187 -15 -254 3 -52 7 -95 9 -97 3 -3 124 12 170 22 37
8 35 -7 -11 -111 -38 -83 -38 -85 -29 -157 7 -59 5 -102 -12 -213 -12 -77 -28
-169 -36 -205 -18 -74 -34 -259 -23 -262 9 -4 10 -86 2 -208 -3 -60 0 -130 9
-189 9 -62 11 -113 5 -153 -4 -33 -6 -64 -3 -68 3 -5 10 -63 15 -131 10 -127
15 -149 56 -289 14 -47 29 -98 34 -115 5 -17 5 -96 1 -180 -7 -135 -6 -154 10
-193 16 -38 17 -55 9 -145 -5 -56 -12 -117 -16 -134 l-6 -33 105 0 105 0 5 28
c8 40 58 73 123 79 35 4 54 10 54 19 0 8 -6 11 -15 8 -9 -4 -46 -3 -83 1 l-67
8 33 13 c39 17 44 55 11 90 -26 28 -52 127 -44 166 4 17 3 33 -2 37 -24 16
-45 111 -48 221 -2 63 -5 124 -7 135 -2 16 2 19 21 17 23 -2 23 -1 17 49 -4
31 -3 56 4 64 12 15 55 8 71 -11 6 -8 17 -14 24 -14 7 0 23 -16 34 -36 14 -22
27 -34 36 -31 21 9 37 -17 29 -48 -5 -21 -1 -32 20 -51 14 -14 26 -29 26 -33
0 -9 -39 -61 -55 -74 -5 -5 5 -5 23 -2 31 6 32 5 32 -25 0 -17 8 -42 17 -56 9
-15 12 -29 7 -32 -5 -4 -15 -24 -23 -46 -10 -29 -10 -40 -1 -46 6 -4 12 -34
13 -70 2 -59 0 -63 -31 -90 l-34 -28 24 -41 c12 -22 29 -41 36 -41 6 0 12 -8
12 -18 0 -13 -15 -23 -50 -36 -46 -16 -50 -21 -50 -50 0 -52 9 -57 96 -54 94
4 103 16 55 77 -28 35 -31 44 -25 83 4 24 12 51 19 61 8 11 11 41 8 85 -7 92
49 469 83 563 23 64 54 228 54 288 0 56 19 96 49 108 28 10 30 9 35 -16 3 -14
8 -62 11 -106 4 -44 15 -109 26 -144 10 -35 19 -81 19 -104 0 -54 16 -151 46
-271 16 -66 24 -128 24 -186 0 -66 5 -99 20 -131 24 -54 25 -104 3 -144 -10
-19 -17 -55 -18 -98 l-1 -67 274 0 275 0 -8 37 c-15 81 -9 226 13 323 15 65
25 159 32 295 6 110 17 225 25 255 20 73 51 210 66 288 9 48 9 76 1 115 -25
114 -22 173 9 249 16 39 29 76 29 83 0 7 7 18 15 25 8 7 15 24 15 37 0 35 53
191 82 238 30 52 98 205 99 225 0 9 2 11 6 3 6 -17 -48 -172 -90 -258 -19 -38
-45 -105 -57 -147 -13 -43 -31 -85 -41 -94 -26 -24 -24 -37 6 -30 26 7 33 -2
15 -20 -8 -8 -6 -14 3 -23 12 -9 17 -6 27 21 7 19 14 27 17 20 3 -7 -1 -27 -7
-43 -17 -40 1 -61 24 -28 9 13 16 30 16 38 0 9 6 33 14 56 22 64 45 142 72
245 31 117 84 270 115 330 28 56 109 176 109 163 0 -10 -17 -43 -95 -189 -42
-77 -100 -232 -119 -315 -8 -35 -22 -91 -31 -124 -23 -79 -16 -157 36 -405 37
-177 56 -288 120 -700 62 -397 80 -482 113 -535 7 -11 16 -46 20 -77 l7 -58
227 0 c184 1 223 3 205 13 -17 9 -19 16 -12 30 12 21 2 40 -17 33 -8 -3 -14 1
-14 9 0 8 3 15 8 15 15 0 35 65 38 128 2 44 9 71 18 78 11 8 14 25 11 62 -2
30 2 62 9 76 12 23 8 101 -10 169 -4 17 -1 45 6 68 9 27 10 51 4 81 -9 39 2
183 21 297 10 53 12 47 50 -149 18 -93 87 -432 115 -560 26 -120 70 -338 70
-345 0 -3 36 -5 80 -5 l80 0 0 34 c0 19 -4 38 -10 41 -5 3 -10 24 -10 45 0 22
-5 40 -12 43 -10 4 -10 7 0 18 8 8 12 9 12 2 0 -11 53 -43 70 -43 11 0 6 52
-7 76 -7 12 -13 51 -15 88 -1 46 -6 66 -15 66 -7 0 -13 3 -13 8 1 13 40 55 47
49 12 -13 33 15 24 32 -9 16 -11 23 -11 41 0 6 -7 10 -15 10 -8 0 -15 5 -15
11 0 6 9 9 19 6 15 -4 20 2 26 30 4 21 2 40 -4 46 -6 6 -11 17 -11 25 0 12 3
12 15 2 12 -10 19 -10 27 -2 9 9 8 12 -5 12 -21 0 -22 19 -2 26 22 9 18 22 -7
30 -30 9 -51 31 -38 39 5 3 10 1 10 -4 0 -19 39 -12 50 8 15 29 12 61 -5 61
-8 0 -15 -9 -15 -20 0 -13 -5 -18 -15 -14 -22 9 -20 62 3 60 9 0 17 6 17 14 0
8 -7 14 -17 14 -9 -1 -18 7 -21 17 -3 11 0 16 8 13 11 -4 11 1 1 30 -7 20 -10
51 -7 69 5 31 6 32 9 5 2 -16 8 -28 13 -28 5 0 9 -6 9 -14 0 -13 20 -26 42
-26 7 0 9 17 6 45 -4 34 -2 45 8 45 8 0 14 5 14 10 0 6 -4 10 -9 10 -5 0 -11
11 -13 25 -3 13 -2 22 2 20 5 -3 11 2 14 11 10 26 7 36 -9 30 -12 -4 -15 3
-17 32 0 20 -2 53 -2 72 -3 55 2 60 55 60 42 0 49 3 49 19 0 29 -11 51 -25 51
-7 0 -16 7 -19 16 -9 22 -8 24 10 24 10 0 14 -6 10 -15 -3 -8 -1 -15 4 -15 6
0 10 5 10 10 0 6 11 10 25 10 27 0 31 -10 16 -39 -10 -18 16 -139 39 -182 7
-12 17 -40 24 -62 6 -22 18 -43 25 -45 10 -3 12 0 8 11 -9 25 11 260 33 377
37 200 45 332 31 522 -13 179 -42 412 -64 508 l-12 55 -75 7 c-41 3 -129 8
-195 11 -114 5 -117 5 -60 -7 39 -8 59 -17 57 -25 -5 -21 27 -61 48 -61 11 0
20 -5 20 -11 0 -5 5 -7 10 -4 6 3 10 2 10 -4 0 -13 -71 -2 -90 14 -8 7 -31 16
-50 20 -19 4 -48 13 -65 20 -16 8 -58 23 -92 35 -61 22 -64 22 -115 5 -110
-35 -159 -70 -75 -54 23 4 80 8 127 9 70 0 94 -4 130 -22 24 -13 45 -28 47
-33 5 -18 -112 -12 -133 6 -26 22 -62 30 -106 22 -47 -7 -50 -23 -4 -23 18 0
46 -6 61 -14 l28 -15 -34 -3 c-56 -5 -109 3 -109 17 0 32 -92 25 -115 -8 -13
-19 -12 -22 8 -31 25 -13 34 -50 17 -71 -13 -16 1 -28 23 -19 8 3 18 1 22 -5
4 -7 -3 -11 -18 -11 -14 0 -30 -6 -36 -14 -10 -12 -6 -15 19 -21 30 -7 38 -19
21 -30 -14 -8 -9 -45 5 -45 7 0 10 8 7 19 -3 12 2 20 16 24 22 5 30 -16 11
-28 -5 -3 -10 -14 -10 -24 0 -10 -9 -26 -20 -36 -11 -10 -20 -13 -20 -7 0 21
-18 13 -26 -10 -7 -21 -9 -20 -15 12 l-6 35 -2 -34 c-1 -28 -4 -33 -21 -28
-11 3 -20 1 -20 -4 0 -5 9 -9 20 -9 25 0 27 -20 3 -21 -10 -1 -28 -3 -40 -4
-20 -2 -21 -1 -7 38 8 22 14 54 14 73 0 18 5 36 11 40 6 4 8 20 4 40 -3 19 -2
40 2 47 4 6 8 29 8 49 0 30 -4 38 -17 38 -11 0 -18 8 -18 19 0 11 -4 23 -10
26 -5 3 -10 15 -10 26 0 10 -4 27 -9 37 -5 9 -15 44 -23 77 -10 43 -20 63 -36
71 l-22 11 20 24 21 23 -20 8 c-11 4 -23 18 -27 32 -3 14 -15 28 -25 31 -29
10 -25 59 7 80 25 16 25 17 7 36 -10 10 -26 27 -35 37 -10 10 -15 29 -14 47 4
30 -11 75 -25 75 -5 0 -6 6 -3 13 9 25 -31 47 -100 54 -37 3 -69 10 -72 14 -3
5 -13 9 -23 9 -10 0 -45 16 -77 35 -65 39 -117 47 -112 17 2 -11 -3 -26 -11
-36 -12 -14 -11 -19 3 -34 9 -10 16 -25 16 -33 0 -8 5 -20 11 -26 16 -16 4
-30 -34 -38 -50 -11 -107 -36 -102 -45 3 -4 -1 -10 -8 -13 -6 -2 -72 54 -146
124 -74 71 -140 129 -147 129 -16 0 -9 -23 19 -64 13 -19 22 -50 24 -85 l3
-56 -20 50 -20 50 6 -55 c4 -30 10 -63 15 -72 20 -38 -51 -31 -88 9 -12 12
-28 23 -36 23 -10 0 -16 18 -19 63 -3 35 -15 81 -27 104 -11 23 -21 46 -21 51
0 5 27 12 60 16 33 4 60 11 60 16 0 9 -131 125 -166 147 -19 12 -19 13 0 28
22 17 92 20 131 5 14 -6 106 -14 203 -20 144 -8 179 -7 187 4 6 7 21 16 35 20
14 4 35 12 48 18 16 9 25 9 33 1 14 -14 1 -36 -17 -29 -16 6 -44 -3 -44 -14 0
-9 45 -15 172 -25 l78 -7 -4 201 c-3 163 -1 201 9 201 19 0 24 23 26 110 1 77
24 196 41 217 5 7 12 48 15 93 6 77 21 110 25 53 1 -16 4 22 7 82 l6 110 14
-74 c15 -83 9 -190 -14 -268 -8 -26 -15 -76 -15 -110 0 -34 -4 -65 -10 -68
-16 -10 -12 -101 5 -115 8 -7 15 -27 15 -44 0 -24 3 -27 10 -16 8 12 10 11 10
-7 0 -12 -5 -23 -12 -25 -7 -3 -8 -10 -4 -17 7 -11 10 -11 18 0 7 10 8 8 3 -6
-14 -43 -17 -85 -6 -99 6 -7 10 -31 8 -52 -3 -22 -2 -29 0 -17 4 22 5 22 23 5
10 -9 20 -28 23 -42 3 -19 5 -17 6 11 1 45 21 104 30 90 13 -20 -4 -160 -25
-215 -8 -21 -8 -21 61 15 28 15 67 32 88 38 22 8 37 19 37 29 0 11 3 13 11 5
6 -6 25 -7 52 -2 23 4 45 8 48 9 3 0 7 15 7 33 3 51 8 71 19 74 6 2 14 -1 18
-6 3 -6 24 -11 46 -11 33 0 39 3 40 23 1 17 3 15 12 -11 7 -23 15 -31 25 -27
10 4 13 0 9 -14 -3 -15 1 -21 17 -24 11 -2 1 -5 -23 -6 -24 0 -42 -4 -39 -7 8
-7 217 -6 347 2 l103 7 -5 48 c-4 31 -30 96 -72 180 -36 73 -73 158 -82 190
-10 38 -20 56 -29 52 -8 -3 -16 13 -24 51 -6 31 -15 58 -21 61 -9 6 -7 -14 11
-105 5 -25 12 -62 15 -83 9 -58 -11 -37 -30 31 -9 31 -23 77 -31 101 -7 24
-11 48 -7 54 3 5 1 7 -4 4 -6 -4 -13 7 -17 26 -3 17 -10 54 -16 81 -11 56 0
180 26 281 9 33 22 103 29 155 l14 95 -4 -155 c-2 -85 -1 -137 2 -115 2 22 9
45 15 50 7 7 9 -13 5 -66 -6 -89 14 -211 39 -236 15 -16 16 -15 11 13 -12 60
-22 190 -25 322 -2 63 -17 85 -25 35 -3 -23 -4 -21 -6 9 0 21 5 43 14 52 17
17 21 116 5 116 -5 0 -11 21 -12 48 l-1 47 -4 -42 c-4 -43 -23 -61 -23 -23 0
11 -11 67 -24 124 -28 116 -71 209 -125 269 -22 24 -28 36 -16 29 24 -12 66
-57 90 -95 10 -15 20 -25 22 -23 7 7 -66 128 -86 144 -14 11 -14 14 -1 22 11
7 8 11 -13 21 -41 19 -32 30 11 12 l37 -15 -43 41 c-24 23 -48 41 -55 42 -7 0
-3 4 8 9 28 12 43 12 25 -1 -12 -8 -10 -9 10 -5 16 3 37 -2 55 -14 42 -28 53
-25 21 5 -31 29 -118 75 -141 75 -8 0 -15 5 -15 10 0 6 -30 10 -69 10 -66 0
-123 -18 -143 -45 -5 -6 -8 -5 -8 3 0 6 -11 12 -25 12 -30 0 -40 -7 -114 -80
-47 -46 -102 -134 -140 -223 -2 -5 31 -7 73 -6 67 2 79 -1 97 -19 18 -20 30
-22 117 -22 71 0 104 4 118 15 18 14 18 14 -6 15 -35 0 -100 19 -100 29 0 5
32 12 70 15 39 4 70 12 70 18 0 7 17 8 49 4 40 -5 50 -4 53 9 5 25 74 -28 81
-62 3 -15 2 -30 -3 -33 -4 -3 -1 -30 6 -60 7 -30 18 -76 24 -102 7 -26 9 -56
5 -67 -3 -10 -1 -22 5 -26 7 -4 7 -13 -1 -27 -9 -17 -8 -24 5 -34 9 -6 22 -38
28 -72 10 -53 9 -63 -8 -93 -27 -45 -62 -63 -89 -45 -27 17 -65 26 -65 15 0
-5 9 -17 20 -26 24 -21 26 -49 5 -57 -8 -3 -15 -14 -15 -25 0 -11 -6 -22 -12
-25 -10 -5 -10 -7 0 -12 6 -3 12 -10 12 -14 0 -12 -74 -32 -78 -21 -1 4 -13 6
-25 4 -13 -3 -33 4 -47 15 l-25 20 35 10 35 9 -35 10 c-19 5 -33 12 -30 15 9
10 -32 48 -52 48 -13 0 -18 7 -18 25 0 14 5 25 11 25 5 0 7 5 4 10 -8 12 -30
-8 -39 -35 -3 -11 -15 -31 -25 -44 -17 -22 -20 -23 -47 -10 -33 16 -64 73 -56
102 3 14 1 18 -6 13 -7 -4 -12 -2 -12 4 0 7 16 9 48 5 26 -3 70 -2 97 2 l50 8
3 42 c5 68 -51 107 -171 119 -64 6 -66 7 -62 33 2 14 9 57 15 95 12 74 24 106
46 119 18 10 18 27 0 27 -8 0 -34 8 -58 18 -58 25 -85 16 -124 -40 -43 -63
-59 -156 -45 -264 13 -111 8 -505 -8 -574 -19 -78 -28 -100 -48 -107 -29 -11
-71 -64 -103 -131 -17 -34 -30 -68 -30 -75 0 -6 -5 -19 -11 -27 -7 -11 -8 -1
-3 35 7 58 44 137 81 171 38 35 10 29 -31 -6 -46 -41 -63 -89 -76 -217 -6 -59
-17 -153 -25 -207 -19 -128 -19 -125 8 -119 33 8 10 -13 -35 -32 -38 -15 -54
-4 -20 14 16 8 21 33 31 158 7 81 22 193 32 248 22 117 21 108 10 101 -4 -3
-16 23 -26 57 -20 65 -106 246 -134 280 -34 41 -143 115 -218 147 -43 19 -120
58 -172 88 -51 29 -96 50 -100 47 -3 -4 2 -12 11 -19 10 -7 15 -16 12 -19 -7
-7 -94 53 -94 65 0 4 -7 8 -15 8 -8 0 -22 11 -31 25 -9 14 -23 25 -30 25 -8 0
-14 7 -14 16 0 10 -5 14 -16 10 -9 -4 -13 -2 -8 5 9 15 -16 59 -49 88 -28 23
-30 36 -12 83 3 8 -3 13 -20 14 -15 1 -25 -3 -25 -12 0 -8 -7 -14 -15 -14 -17
0 -20 16 -5 25 17 11 11 24 -20 40 -16 8 -31 15 -35 15 -9 0 -5 -49 5 -55 30
-18 -8 -67 -55 -71 -31 -2 -35 0 -35 22 0 20 -5 24 -29 24 -16 0 -34 7 -41 15
-7 8 -25 15 -41 15 -22 0 -29 5 -29 20 0 17 10 23 36 19 14 -2 24 28 24 74 0
26 7 64 15 84 20 47 16 56 -34 73 -23 7 -40 18 -38 24 2 5 20 18 41 29 30 16
36 24 32 42 -4 15 1 28 14 40 11 10 20 24 20 30 0 24 113 34 153 13 12 -6 29
-14 37 -18 8 -4 16 -19 18 -34 3 -20 9 -26 27 -26 18 0 24 -7 31 -37 4 -21 8
-42 9 -48 1 -14 24 -52 25 -41 0 6 6 1 14 -9 13 -18 14 -18 21 5 4 13 20 41
36 63 16 22 29 45 29 52 0 14 38 50 63 58 17 6 24 27 9 27 -10 0 -6 59 7 92 6
17 7 29 1 33 -12 8 -13 92 -1 99 4 3 5 25 0 48 -4 24 -5 53 -2 66 4 16 -1 29
-16 43 -11 11 -21 28 -21 39 0 25 -10 50 -20 50 -13 0 -64 51 -83 83 -10 15
-24 27 -32 27 -8 0 -19 9 -25 20 -6 11 -18 20 -27 20 -14 0 -15 11 -9 89 7 87
7 88 -16 95 -27 7 -45 6 -118 -5z m-578 -332 c-14 -15 -22 -36 -22 -60 0 -20
-4 -39 -10 -42 -5 -3 -10 -15 -10 -26 0 -10 -5 -19 -11 -19 -6 0 -9 -7 -5 -15
9 -25 -34 -42 -124 -49 -226 -17 -790 -37 -1196 -43 l-451 -6 -8 107 c-4 60
-3 111 1 116 5 4 245 12 534 19 562 12 914 26 1155 45 83 7 154 9 159 4 6 -4
1 -17 -12 -31z m-91 -433 c10 -12 10 -25 2 -55 -8 -30 -7 -43 4 -59 8 -12 12
-27 10 -35 -6 -15 13 -25 46 -25 13 0 18 -3 11 -10 -5 -5 -63 -14 -129 -20
-66 -6 -167 -17 -225 -25 -157 -22 -451 -34 -982 -42 l-478 -6 0 115 0 115
398 6 c517 9 1248 40 1323 56 4 0 12 -6 20 -15z m233 -448 c23 -77 20 -146 -6
-146 -5 0 -17 -9 -26 -19 -15 -16 -42 -20 -210 -30 -106 -7 -243 -18 -305 -26
-134 -16 -513 -38 -526 -30 -5 3 -17 29 -27 58 -9 28 -28 71 -41 95 -14 23
-23 48 -20 55 3 8 37 13 108 15 57 2 176 9 264 17 88 8 201 17 250 20 50 3
124 10 165 16 78 11 244 25 317 28 l42 1 15 -54z m-1834 -56 c0 -5 -15 -40
-34 -77 -18 -38 -39 -85 -46 -105 -8 -25 -18 -38 -29 -38 -13 0 -20 10 -25 38
-8 50 -8 177 1 185 10 11 133 8 133 -3z m2294 -98 c10 -64 -11 -123 -51 -141
-61 -28 -170 2 -118 32 11 7 33 16 49 22 52 18 44 35 -17 35 -36 0 -59 5 -67
15 -10 12 -10 15 4 15 25 0 19 19 -9 26 -41 10 -29 24 23 25 26 1 60 4 77 8
16 3 46 5 66 3 34 -4 37 -7 43 -40z m-1877 -19 c34 -27 46 -46 59 -89 9 -31
13 -66 10 -80 -4 -14 -2 -24 4 -24 5 0 10 -22 10 -49 0 -45 -2 -49 -27 -56
-17 -4 -38 0 -58 11 -44 23 -69 14 -53 -21 17 -38 51 -43 130 -19 13 4 20 -6
32 -47 20 -66 20 -101 0 -185 -24 -107 -55 -156 -121 -199 -53 -33 -63 -36
-107 -30 -48 6 -116 48 -116 71 0 13 32 24 73 24 15 0 37 9 49 19 l20 20 -40
11 c-40 10 -66 30 -41 30 7 0 5 8 -6 20 -10 11 -14 20 -9 21 21 2 62 5 99 8
32 2 36 4 20 11 -11 5 -36 9 -55 9 -44 2 -69 15 -44 25 9 3 26 4 36 0 17 -5
18 -3 9 15 -6 11 -22 28 -34 38 -23 17 -23 19 -11 78 17 79 17 115 -1 159 -15
35 -22 39 -115 78 -15 6 -20 12 -12 15 6 3 12 13 12 23 0 10 5 22 11 25 5 4
14 18 19 31 7 16 29 32 67 49 32 13 69 31 83 38 33 18 56 11 107 -30z m1368
-163 c7 0 19 -16 25 -35 6 -19 18 -35 26 -35 17 0 18 -22 2 -38 -8 -8 -13 -67
-15 -179 -1 -104 1 -158 6 -142 5 15 9 83 10 153 1 131 7 180 22 170 5 -3 9 9
9 25 0 37 2 37 47 10 24 -15 63 -25 127 -31 123 -13 160 -12 234 11 l63 20 -6
-32 c-4 -18 -11 -36 -15 -41 -5 -5 4 -22 20 -37 29 -29 29 -28 10 -104 -8 -33
3 -35 21 -5 12 19 23 37 25 39 1 2 15 -6 30 -18 20 -15 30 -18 35 -10 13 21
34 2 52 -47 15 -42 17 -78 14 -249 -4 -186 -3 -196 10 -140 7 33 18 136 23
228 7 116 15 178 26 198 11 22 13 43 8 76 -5 33 -4 44 5 39 6 -4 11 -38 11
-84 1 -74 13 -112 37 -112 6 0 13 -10 16 -22 11 -46 34 -99 53 -121 14 -17 20
-40 21 -96 2 -41 6 -77 10 -80 5 -3 8 -23 8 -44 0 -26 -4 -37 -15 -38 -8 0 -4
-5 10 -11 l25 -11 -25 -7 c-14 -4 -24 -12 -22 -19 1 -7 -3 -20 -9 -27 -10 -12
-6 -17 20 -27 28 -10 31 -16 32 -57 1 -25 2 -57 3 -72 1 -16 -2 -24 -9 -20 -5
3 -4 -2 4 -11 22 -28 -3 -21 -124 33 -57 25 -83 32 -95 25 -13 -8 18 -55 36
-55 7 0 18 -8 24 -17 10 -16 11 -16 6 -1 -4 15 -2 16 20 6 14 -6 23 -17 20
-24 -3 -7 2 -15 11 -18 11 -4 13 -14 9 -32 -4 -15 -2 -32 5 -40 9 -11 7 -14
-9 -14 -22 0 -35 -22 -26 -44 3 -8 1 -17 -5 -21 -6 -3 -8 -17 -5 -30 4 -17 0
-26 -15 -35 -19 -9 -21 -8 -21 15 0 44 -17 27 -24 -24 -6 -48 -7 -49 -56 -65
-27 -9 -62 -16 -77 -16 -28 0 -39 -7 -103 -57 -15 -13 -33 -23 -39 -23 -6 0
-11 -3 -11 -8 0 -4 -10 -12 -22 -17 -18 -8 -23 -18 -23 -48 0 -34 -6 -41 -35
-39 -3 0 -5 -247 -4 -549 l0 -550 -70 3 -71 3 -12 170 c-7 94 -17 325 -22 515
-9 352 -15 403 -48 399 -40 -3 -53 2 -53 20 0 11 -4 23 -10 26 -17 10 -11 25
10 25 11 0 20 3 20 6 0 15 -41 61 -69 77 l-32 19 6 -25 c7 -24 -15 -57 -37
-57 -6 0 -25 15 -42 33 l-31 32 25 3 c71 8 33 34 -72 48 -46 6 -56 13 -41 28
13 12 14 50 3 143 -8 76 -16 102 -44 148 -30 50 -38 95 -17 95 10 0 41 -38 53
-66 11 -23 16 -24 100 -24 103 0 96 -13 73 144 -43 292 -52 440 -33 574 10 71
10 90 -4 135 -9 28 -22 81 -28 117 -6 36 -13 73 -15 83 -2 13 1 17 12 13 8 -3
21 -6 28 -6z m-362 -102 c-12 -20 -15 -58 -4 -58 5 0 18 14 28 30 18 31 28 37
38 21 3 -5 -3 -12 -13 -15 -11 -4 -22 -24 -30 -59 -17 -72 -16 -83 13 -166 14
-39 27 -95 30 -123 2 -28 9 -56 14 -61 6 -6 11 -22 11 -36 1 -15 9 -55 18 -91
13 -48 22 -64 34 -62 14 2 32 -30 29 -52 -1 -4 4 -15 10 -23 7 -8 14 -31 16
-51 5 -49 11 -65 23 -57 5 3 10 -1 10 -9 0 -19 -35 -38 -63 -34 -19 3 -21 8
-19 46 2 23 0 42 -5 42 -5 0 -9 17 -9 37 0 31 -4 38 -24 43 -16 4 -28 17 -35
35 -5 17 -14 33 -19 36 -9 7 -45 177 -46 219 -1 65 -51 160 -84 160 -7 0 -19
-21 -27 -47 -17 -56 -32 -60 -59 -18 l-20 30 0 -38 c0 -22 5 -40 14 -43 14 -5
17 -23 19 -122 1 -85 -16 -100 -36 -30 -36 128 -39 156 -28 223 11 63 7 115
-9 115 -5 0 -20 -35 -35 -77 l-25 -78 4 59 c3 32 10 64 15 69 6 6 11 15 11 21
0 5 -18 -8 -40 -31 -36 -36 -47 -41 -102 -47 -112 -11 -136 -9 -143 17 -3 12
-10 31 -14 42 -23 58 -43 134 -37 144 4 6 32 11 63 11 31 0 117 7 192 15 197
21 200 22 274 23 52 2 66 -1 60 -10z m-1310 -69 c26 -6 51 -7 67 -1 34 13 63
-21 47 -55 -6 -13 -16 -23 -22 -23 -7 0 -25 -16 -39 -35 -15 -19 -36 -40 -48
-46 -18 -10 -24 -8 -39 12 -10 13 -21 36 -24 52 -7 27 2 107 11 107 3 0 24 -5
47 -11z m2791 -1694 c33 -17 129 -20 174 -4 34 12 87 -6 63 -21 -17 -10 -4
-75 22 -120 29 -47 98 -140 105 -140 4 0 20 13 37 29 27 27 115 59 115 42 0
-4 -18 -15 -39 -24 -34 -16 -78 -57 -133 -125 -19 -23 -86 -130 -124 -197 -26
-45 -104 -268 -105 -300 -2 -62 -24 43 -114 540 -16 88 -51 214 -76 272 -10
25 -19 49 -19 54 0 14 62 10 94 -6z m1869 -817 c2 -287 -3 -357 -39 -547 -12
-60 -17 7 -16 226 1 156 -2 231 -9 218 -6 -15 -7 -10 -2 15 3 19 10 53 14 75
7 38 8 37 7 -15 -2 -105 2 -233 7 -228 7 6 13 171 14 393 1 130 5 185 11 173
6 -10 11 -140 13 -310z m-2144 72 c10 0 35 -15 55 -34 31 -30 36 -41 36 -79 0
-37 4 -46 21 -50 11 -3 23 -15 26 -26 3 -12 11 -21 18 -21 9 0 15 -37 19 -142
7 -137 18 -198 37 -198 5 0 9 -19 9 -43 0 -24 4 -47 9 -53 20 -21 -1 -74 -43
-106 -22 -18 -43 -35 -46 -38 -29 -31 -61 -35 -275 -38 -121 -1 -235 0 -252 3
-35 6 -42 21 -19 39 11 8 12 17 4 36 -6 14 -11 52 -12 85 -2 33 -1 46 1 28 4
-32 6 -33 66 -24 4 0 7 14 7 30 0 23 4 28 23 26 12 -1 28 -3 35 -4 6 0 12 -10
12 -21 0 -16 -7 -20 -31 -20 -36 0 -35 -21 2 -31 21 -5 22 -7 6 -14 -10 -4
-23 -2 -32 5 -14 12 -35 6 -35 -9 0 -11 67 -22 86 -14 8 3 14 18 14 33 0 24 3
27 25 22 15 -2 25 0 25 7 0 6 -7 11 -15 11 -19 0 -19 3 4 51 11 22 17 47 14
55 -3 8 1 21 8 30 12 14 14 14 21 -5 10 -29 24 -26 33 7 8 27 8 27 18 -12 6
-26 6 -40 -1 -45 -10 -6 -26 -57 -39 -123 -4 -22 0 -29 26 -42 17 -9 31 -14
31 -10 0 4 9 -5 21 -20 15 -19 30 -26 55 -26 39 0 40 2 17 30 -12 13 -16 33
-14 65 2 43 1 45 -23 45 l-26 0 18 38 c11 20 17 43 15 50 -3 7 3 22 12 32 10
11 20 42 23 70 3 36 9 50 20 50 12 0 13 11 7 73 -4 39 -7 92 -6 115 1 24 -4
54 -12 66 -8 12 -16 55 -19 95 -2 40 -2 68 0 62 2 -6 12 -11 21 -11z m-858
-302 c0 -7 0 -50 -1 -95 -1 -74 1 -84 21 -100 54 -42 99 -97 99 -119 0 -14 5
-33 12 -43 6 -10 8 -26 3 -37 -5 -13 -9 -15 -12 -6 -3 6 -19 12 -36 12 -18 0
-53 8 -79 17 -38 13 -48 22 -48 39 0 13 -5 26 -11 30 -6 3 -9 15 -6 25 3 11 0
19 -7 19 -7 0 -18 17 -25 38 -8 20 -18 40 -23 43 -11 7 48 109 63 109 5 0 9
18 9 40 0 33 3 40 20 40 11 0 20 -6 21 -12z m1015 -1090 c-10 -108 -17 -152
-26 -173 -4 -11 -11 -35 -14 -53 -3 -19 -17 -56 -31 -84 -26 -53 -32 -94 -14
-100 6 -2 13 -19 15 -37 3 -29 1 -33 -15 -28 -14 3 -18 1 -14 -9 4 -11 -6 -14
-44 -14 -38 0 -51 -4 -61 -21 -12 -18 -11 -21 7 -26 12 -3 21 -10 21 -15 0 -6
-7 -7 -16 -4 -9 3 -20 6 -25 6 -25 0 11 107 54 158 14 18 11 150 -4 168 -6 8
-9 18 -5 22 4 4 13 -1 20 -11 18 -24 26 -21 26 8 0 15 11 36 26 50 21 19 24
27 15 44 -15 28 -14 32 15 66 14 16 28 42 31 57 3 16 9 28 14 28 5 0 9 7 9 15
0 8 5 15 11 15 8 0 9 -20 5 -62z"/>
<path d="M6506 4144 c-11 -29 -6 -107 19 -299 14 -104 25 -211 25 -237 0 -46
1 -48 29 -48 25 0 28 3 24 28 -12 75 -18 172 -11 172 5 0 8 5 8 11 0 5 -5 7
-11 3 -7 -4 -10 7 -8 32 1 22 -3 49 -9 61 -7 12 -12 37 -13 55 0 27 -2 29 -8
13 -9 -23 -25 113 -22 183 2 41 -11 57 -23 26z"/>
<path d="M6941 5209 c-13 -5 -35 -10 -48 -11 -33 -3 -56 -31 -48 -57 3 -12 11
-21 16 -21 6 0 17 -7 25 -15 47 -47 120 -21 159 54 14 28 25 53 25 56 0 9
-104 4 -129 -6z"/>
<path d="M1362 5051 c-104 -26 -215 -84 -291 -153 -145 -131 -151 -137 -151
-168 0 -23 -9 -35 -44 -59 -34 -24 -47 -41 -60 -80 -9 -27 -16 -59 -16 -71 0
-12 -9 -29 -21 -38 -22 -19 -66 -118 -75 -172 -11 -66 -14 -70 -46 -70 -38 0
-112 -49 -151 -99 -24 -30 -28 -44 -25 -84 3 -48 3 -49 -35 -62 -20 -7 -47
-25 -58 -39 -20 -25 -31 -37 -64 -64 -8 -7 -15 -26 -15 -42 0 -23 -7 -32 -42
-49 -36 -17 -48 -31 -75 -88 -30 -63 -48 -163 -30 -163 4 0 11 0 16 0 5 0 9
19 8 42 -2 36 1 43 18 45 11 2 14 0 7 -3 -10 -5 -10 -9 -1 -20 6 -8 9 -27 7
-44 -3 -18 1 -35 9 -41 10 -9 13 -7 13 7 0 11 9 30 20 44 11 14 20 30 20 36 0
5 9 30 21 53 11 24 18 50 14 59 -3 9 -3 13 1 10 3 -4 16 12 28 35 17 34 26 42
46 39 14 -1 30 -9 37 -18 8 -11 13 -12 18 -4 4 6 -3 22 -15 35 -19 20 -21 27
-10 40 7 8 21 15 31 15 11 0 28 9 39 20 15 15 33 20 69 20 28 0 53 -4 56 -10
3 -5 26 -9 50 -8 52 3 57 -2 59 -42 1 -22 5 -28 16 -25 11 4 23 -9 38 -41 l23
-46 -26 -20 c-14 -11 -25 -25 -24 -31 4 -30 -3 -45 -21 -50 -17 -4 -19 -9 -10
-32 13 -34 13 -92 -1 -100 -20 -13 -57 4 -63 29 -3 13 -13 26 -21 30 -25 9
-18 -41 10 -78 14 -18 25 -38 25 -44 0 -6 5 -14 11 -18 8 -5 10 1 6 18 -7 26
13 45 33 33 16 -10 52 55 48 86 -5 35 -1 36 24 7 45 -52 49 -71 28 -134 -12
-34 -16 -60 -11 -64 5 -3 14 -18 20 -33 10 -27 36 -45 48 -34 3 3 -5 22 -17
41 -25 42 -20 68 16 85 24 10 26 10 18 -6 -12 -27 -9 -80 6 -98 19 -22 64 -16
67 10 2 11 0 14 -3 8 -9 -20 -22 -16 -40 12 -25 38 -11 61 37 63 56 3 73 16
29 22 l-35 6 39 13 c35 12 40 11 67 -8 37 -27 37 -16 2 22 -17 18 -23 31 -17
34 8 3 9 15 4 39 -8 35 -8 35 22 29 20 -5 28 -4 24 3 -3 6 -19 13 -34 17 -51
12 -63 27 -50 69 10 33 14 37 37 31 28 -7 41 -21 41 -45 0 -12 2 -12 13 -1 10
11 10 14 0 18 -18 6 -16 23 1 23 8 0 24 -12 35 -26 15 -19 21 -22 21 -11 0 9
-4 19 -10 22 -5 3 -10 15 -10 26 0 11 4 18 9 15 5 -4 20 -2 33 3 17 7 18 10 6
10 -22 1 -23 10 -2 39 15 22 14 67 -3 126 -3 11 -1 16 5 12 6 -3 17 2 24 12 7
10 25 21 40 24 26 5 27 4 26 -47 -1 -42 3 -57 21 -76 13 -13 30 -38 37 -56 12
-28 12 -35 -4 -62 -9 -17 -24 -31 -32 -31 -13 0 -13 -1 0 -10 10 -6 16 -6 18
0 2 6 8 10 13 10 4 0 6 -6 3 -14 -3 -7 2 -16 10 -19 9 -4 16 -2 16 4 0 11 64
-24 90 -49 13 -12 12 -13 -10 -8 -22 5 -22 4 3 -6 19 -9 27 -18 25 -33 -2 -16
3 -21 29 -23 29 -3 33 -7 38 -40 3 -20 12 -58 20 -83 18 -57 18 -79 0 -103
-19 -25 -13 -32 48 -61 60 -30 67 -30 67 -7 1 13 4 12 14 -7 11 -21 14 -21 20
-6 3 10 2 23 -4 30 -16 20 4 27 34 14 31 -15 32 -28 5 -81 -11 -22 -19 -49
-16 -59 5 -20 -22 -118 -39 -140 -18 -24 -43 -92 -53 -144 -12 -62 -30 -134
-41 -160 -4 -11 -13 -47 -20 -80 -6 -33 -17 -75 -23 -93 -9 -27 -13 -30 -18
-15 -4 10 -5 -5 -2 -33 4 -38 0 -61 -16 -96 -11 -26 -21 -58 -21 -71 0 -13 -7
-46 -15 -72 -8 -27 -12 -52 -9 -56 5 -9 -45 -51 -55 -45 -3 2 -22 7 -41 10
-19 3 -52 8 -72 11 -34 6 -38 4 -38 -14 0 -12 -5 -21 -11 -21 -6 0 -8 8 -4 19
5 17 0 21 -32 26 -21 3 -58 11 -83 18 -64 16 -217 12 -274 -7 -35 -12 -57 -14
-80 -8 -43 12 -135 3 -166 -17 -49 -31 -52 -37 -39 -80 10 -33 9 -45 -5 -75
-9 -19 -19 -56 -22 -83 -4 -26 -10 -52 -14 -58 -4 -5 -10 -46 -14 -90 -4 -44
-12 -109 -18 -145 -11 -68 -11 -66 36 -237 6 -23 19 -50 28 -60 9 -10 28 -49
42 -86 30 -79 96 -216 108 -223 4 -3 8 -14 8 -25 0 -10 4 -19 8 -19 5 0 16
-17 26 -37 31 -64 243 -403 277 -442 7 -7 12 -25 12 -40 -1 -61 -23 -369 -29
-404 l-7 -37 417 0 c229 0 416 4 416 8 0 5 -3 12 -7 16 -4 4 -8 14 -8 22 0 7
-4 13 -10 13 -5 -1 -9 -6 -7 -11 5 -20 -19 -35 -50 -32 -37 5 -51 14 -20 14
12 0 22 5 22 10 0 6 -9 10 -21 10 -15 0 -19 5 -15 15 3 8 -4 24 -15 34 -12 11
-18 24 -14 30 3 6 -1 11 -9 11 -9 0 -19 12 -22 28 -8 32 -42 72 -61 72 -10 0
-12 7 -8 20 5 15 2 20 -10 20 -12 0 -16 6 -12 20 3 14 -4 30 -24 49 -16 16
-29 34 -29 40 0 6 -5 11 -11 11 -18 0 -70 59 -67 76 2 9 -2 19 -9 21 -7 2 -19
-17 -30 -46 -10 -28 -23 -51 -30 -51 -7 0 -13 -5 -13 -11 0 -5 -4 -7 -10 -4
-5 3 -10 11 -10 17 0 6 3 9 6 5 9 -9 36 21 29 32 -3 6 10 34 29 64 l34 53 -31
10 c-25 7 -31 14 -30 31 2 13 -2 23 -8 23 -6 0 -8 9 -4 23 5 17 4 19 -4 7 -6
-8 -8 -27 -5 -43 4 -20 2 -27 -9 -27 -17 0 -30 52 -15 61 6 4 6 9 1 12 -14 9
-73 5 -79 -5 -10 -15 -24 -8 -24 12 0 22 4 23 78 20 32 -1 52 2 52 9 0 6 -10
11 -23 11 -13 0 -28 5 -35 12 -8 8 -15 8 -25 0 -8 -7 -17 -9 -20 -5 -4 3 -14
0 -22 -7 -13 -11 -19 -11 -33 3 -15 16 -15 17 8 18 25 1 25 1 -2 11 -36 13
-39 41 -4 32 32 -8 51 3 36 21 -8 10 -7 14 2 18 7 3 0 6 -17 7 l-30 1 25 11
c21 9 22 12 7 15 -12 3 -16 10 -13 20 3 8 6 17 6 19 0 2 7 4 16 4 8 0 12 5 8
11 -4 8 -9 8 -17 0 -19 -19 -29 -12 -23 17 l6 27 -20 -23 c-11 -13 -42 -30
-69 -37 -55 -14 -60 -12 -96 52 -22 37 -19 43 21 46 20 1 29 -3 32 -15 2 -13
-3 -18 -19 -18 -22 0 -22 0 -3 -21 16 -18 19 -19 22 -5 5 23 29 20 37 -4 7
-23 25 -27 25 -5 0 8 -4 15 -8 15 -5 0 -14 12 -21 26 -10 24 -10 25 11 19 17
-5 19 -4 9 3 -8 6 -15 19 -16 29 0 10 -5 24 -9 32 -7 10 -3 12 13 6 23 -7 28
4 9 23 -9 9 -8 15 8 27 17 13 17 14 2 15 -10 0 -18 6 -18 14 0 8 -11 17 -24
20 -13 3 -31 8 -39 12 -10 3 -17 -3 -21 -20 -6 -25 -26 -37 -26 -16 0 6 4 10
10 10 10 0 26 66 21 89 -3 17 -42 71 -51 71 -4 0 -5 -11 -2 -25 3 -18 -1 -30
-14 -40 -18 -13 -18 -14 -1 -15 20 0 22 -13 3 -29 -11 -9 -15 -7 -19 10 -4 16
-10 19 -29 14 -29 -9 -48 -33 -41 -51 3 -8 8 -13 10 -10 9 9 31 -18 26 -31 -3
-8 3 -13 16 -13 21 0 21 1 6 30 -19 37 -19 46 0 30 8 -7 15 -19 15 -26 0 -8 6
-11 15 -8 10 4 15 0 15 -15 0 -12 -6 -21 -15 -21 -8 0 -15 -4 -15 -10 0 -5 -7
-10 -15 -10 -8 0 -15 3 -15 8 0 4 -10 18 -23 32 -12 14 -29 41 -37 60 -8 19
-17 37 -21 40 -4 3 -9 14 -11 25 -4 26 28 32 52 10 18 -16 20 -16 44 2 27 19
32 38 16 63 -7 11 -2 22 17 42 l27 28 -22 20 c-12 11 -28 20 -37 20 -8 0 -15
7 -15 15 0 8 9 15 20 15 14 0 20 7 20 24 0 21 7 25 78 39 42 9 97 16 122 15
43 0 45 -1 45 -28 0 -16 -3 -28 -7 -27 -3 1 -7 -2 -7 -8 -1 -5 14 -11 34 -13
19 -2 35 -8 35 -13 0 -6 4 -7 10 -4 5 3 10 -3 10 -14 0 -17 6 -21 31 -21 16 0
28 -4 25 -9 -3 -5 -14 -7 -24 -5 -20 6 -62 -30 -62 -51 0 -18 27 -20 32 -3 6
17 28 0 28 -23 0 -10 4 -19 9 -19 5 0 11 -10 15 -23 3 -12 16 -34 30 -48 13
-14 31 -40 40 -57 9 -18 20 -32 24 -32 4 0 13 -9 20 -21 15 -24 0 -51 -24 -42
-8 3 -14 -1 -14 -10 0 -19 27 -30 33 -14 3 7 17 0 36 -20 21 -21 38 -29 51
-26 14 4 20 0 20 -11 0 -9 5 -16 11 -16 6 0 8 -9 4 -21 -5 -15 -2 -22 14 -26
12 -3 22 -10 22 -17 1 -6 2 -15 4 -21 1 -5 3 -18 3 -27 1 -10 9 -18 17 -18 7
0 18 -8 24 -17 17 -31 23 -6 7 31 -22 54 -1 44 24 -12 73 -161 85 -184 96
-184 10 1 30 69 44 159 6 34 37 144 71 244 75 227 85 268 109 454 21 159 26
325 11 354 -5 9 -15 55 -21 101 -6 47 -13 93 -16 103 -4 12 0 17 13 17 14 0
13 3 -6 13 -28 14 -56 78 -47 110 3 12 24 42 47 67 78 85 90 105 100 176 5 37
12 70 15 73 3 3 17 -7 30 -24 13 -16 41 -49 60 -73 28 -33 35 -49 31 -70 -3
-15 1 -78 10 -140 14 -95 14 -126 4 -200 -7 -48 -17 -150 -21 -227 -5 -77 -11
-153 -14 -170 -14 -86 -16 -134 -7 -139 6 -4 15 3 21 14 8 15 17 19 31 15 10
-4 19 -2 19 4 0 5 -10 12 -22 14 l-23 4 23 2 c23 1 32 21 10 21 -10 0 -9 3 1
9 11 7 10 11 -5 20 -11 6 -14 11 -7 11 7 0 10 7 7 15 -4 8 -1 15 6 15 10 0 10
3 0 15 -10 12 -10 15 1 15 10 0 11 2 2 8 -7 4 -11 16 -9 27 2 14 11 20 35 21
44 2 52 14 9 14 -30 0 -34 3 -33 22 1 13 8 24 16 24 31 3 33 6 9 14 -24 8 -24
8 -2 9 26 1 30 21 5 22 -11 0 -13 3 -5 6 17 7 15 21 -5 26 -14 4 -13 5 4 6 16
1 21 6 17 16 -5 12 5 15 52 17 l59 2 -50 3 c-27 2 -57 6 -65 9 -13 4 -13 6 0
14 11 7 11 10 2 10 -9 0 -8 7 4 25 13 20 25 25 63 27 l46 1 -45 4 c-47 4 -80
22 -45 24 16 1 15 3 -5 9 -19 6 -20 8 -6 9 12 1 16 6 13 16 -4 8 -1 17 5 21 7
4 6 9 -3 15 -11 7 -11 9 -1 9 7 0 12 6 11 13 -5 28 14 47 45 47 24 0 27 -3 16
-10 -15 -9 -11 -12 20 -14 8 -1 16 -11 18 -23 3 -19 -1 -23 -22 -23 -14 0 -26
-5 -26 -10 0 -6 3 -9 8 -9 4 1 14 1 22 0 12 -1 12 -3 2 -10 -10 -6 -5 -10 17
-14 17 -4 30 -10 29 -14 -2 -12 14 -47 26 -55 5 -3 -6 -11 -25 -16 l-34 -10
38 -1 c37 -1 38 -2 35 -38 -1 -21 -7 -41 -12 -45 -7 -5 -3 -8 8 -8 11 0 16 -3
13 -7 -4 -3 -2 -12 4 -20 9 -10 8 -13 -1 -13 -7 0 -10 -6 -7 -14 4 -10 -2 -16
-16 -19 -18 -4 -17 -5 6 -6 24 -1 41 -21 17 -21 -5 0 -10 -7 -10 -15 0 -9 -10
-15 -22 -16 -19 -1 -19 -2 -5 -6 11 -3 16 -11 13 -18 -3 -8 4 -15 17 -18 21
-4 21 -4 -2 -6 -16 -1 -21 -5 -17 -16 3 -10 -1 -15 -11 -15 -14 0 -14 -2 3
-15 19 -14 19 -14 -1 -15 -18 -1 -17 -2 5 -15 21 -12 22 -14 6 -15 -11 0 -16
-3 -13 -7 4 -3 2 -11 -3 -18 -6 -8 -4 -18 8 -31 18 -19 18 -20 -5 -39 -30 -26
-29 -35 5 -36 l27 0 -24 -10 c-29 -11 -111 -1 -111 13 0 6 -7 7 -16 4 -17 -6
-92 11 -108 26 -6 4 -14 8 -18 8 -12 0 -10 -90 3 -130 7 -22 12 -148 14 -335
3 -348 3 -346 106 -771 16 -67 29 -149 29 -183 l0 -61 80 0 80 0 0 40 c0 22
-4 40 -10 40 -6 0 -10 33 -10 80 0 61 3 80 14 80 11 0 12 9 4 46 -7 30 -7 59
0 84 5 21 6 57 2 80 -4 23 -4 76 1 118 5 42 9 120 9 172 0 84 3 97 21 111 11
8 25 34 30 58 5 24 16 50 24 58 8 8 15 25 15 38 0 54 36 102 73 96 12 -2 8 17
-5 21 -6 2 -9 12 -5 21 5 13 18 17 52 17 38 0 45 -3 45 -20 0 -12 -7 -20 -16
-20 -14 0 -15 -11 -9 -88 7 -102 25 -192 37 -192 4 0 13 9 20 20 7 11 20 20
28 20 15 0 70 77 70 98 0 6 6 15 14 19 8 5 16 36 20 80 7 70 6 74 -20 98 -15
14 -31 25 -35 25 -11 0 -12 47 -1 54 4 2 25 -13 46 -35 22 -21 48 -41 58 -45
11 -3 17 -9 16 -12 -39 -72 -40 -79 -19 -200 10 -65 25 -144 33 -177 16 -72 7
-242 -17 -311 -16 -47 -20 -103 -7 -90 4 4 7 11 8 14 0 4 6 19 12 33 6 15 25
70 43 123 18 53 36 93 41 88 9 -9 58 -156 108 -322 36 -120 54 -164 93 -235
15 -27 30 -58 33 -67 6 -16 20 -18 106 -18 l100 0 -7 38 c-4 20 -11 42 -16 48
-11 14 -31 84 -60 214 -12 52 -26 104 -31 114 -6 11 -12 46 -13 79 -2 33 -7
62 -12 66 -9 5 -30 97 -37 161 -4 38 -16 70 -26 70 -6 0 -7 20 -3 45 4 33 2
45 -7 45 -9 0 -11 11 -6 40 5 32 3 40 -9 40 -11 0 -15 11 -15 40 0 30 4 40 16
40 13 0 15 8 12 40 -4 43 6 54 15 18 5 -18 8 -19 21 -8 9 7 16 18 16 26 0 7 9
18 20 24 16 9 20 8 20 -5 0 -23 20 -18 42 10 14 18 26 24 39 20 12 -4 22 1 31
14 9 14 23 21 45 21 25 0 35 6 47 31 9 17 13 35 10 40 -3 5 -1 9 5 9 20 0 -1
29 -22 32 -16 2 -22 10 -21 26 0 12 -4 22 -9 22 -5 0 -7 16 -4 36 4 24 1 44
-9 59 -10 15 -12 25 -5 30 6 3 11 1 11 -5 0 -6 5 -8 11 -4 8 5 8 9 -1 14 -7 4
-9 13 -6 19 4 6 2 11 -4 11 -14 0 -34 54 -22 58 8 2 6 24 -14 105 -5 22 -4 26
10 21 21 -8 21 19 0 37 -10 8 -13 21 -9 36 3 13 -1 33 -11 47 -12 19 -13 29
-5 45 11 20 5 51 -9 51 -13 0 -6 93 7 97 9 3 9 11 -3 28 -9 13 -13 28 -10 34
3 5 0 12 -6 14 -7 3 -4 6 7 6 16 1 17 3 6 10 -8 5 -16 22 -18 37 -4 24 -2 26
11 15 8 -7 21 -11 28 -8 8 4 7 6 -4 6 -10 1 -18 7 -18 15 0 8 -4 16 -8 18 -5
2 -12 19 -16 38 -5 27 -4 32 6 22 21 -21 31 -13 14 13 -9 13 -16 31 -16 40 0
8 -6 15 -12 15 -7 1 -2 10 11 20 13 11 18 20 12 20 -6 0 -11 5 -11 10 0 16 25
11 53 -10 29 -23 47 -26 47 -6 0 8 7 17 16 20 24 9 64 7 64 -3 0 -5 3 -16 6
-24 4 -11 -3 -17 -23 -20 -15 -3 -8 -4 17 -3 39 1 45 4 48 23 4 26 9 27 49 12
27 -10 27 -11 9 -25 -20 -14 -20 -14 0 -14 14 0 10 -5 -13 -16 -33 -17 -43
-34 -20 -34 6 0 3 -8 -8 -16 -20 -15 -19 -15 5 -12 19 2 24 8 23 25 -2 16 5
24 27 32 17 5 30 9 31 8 7 -16 4 -54 -5 -59 -6 -4 -7 -10 -3 -14 4 -4 13 -2
19 4 13 13 59 17 57 5 -7 -45 18 -42 27 2 8 47 -5 182 -19 198 -34 37 -54 80
-39 85 7 2 12 11 12 19 0 10 6 14 18 11 13 -4 17 2 19 21 3 46 -20 135 -44
171 -13 19 -23 43 -23 52 0 10 -4 26 -9 36 -5 9 -14 33 -20 52 l-10 35 6 -39
c5 -36 5 -38 -16 -27 -26 14 -27 1 -2 -26 24 -25 41 -84 41 -139 0 -38 -23
-83 -55 -107 -16 -12 -118 3 -137 20 -23 20 -23 33 0 34 11 0 12 2 4 6 -7 3
-30 -6 -50 -20 -41 -29 -121 -50 -137 -38 -5 5 -34 11 -64 13 -53 5 -73 19
-68 48 2 11 16 15 54 15 29 0 55 4 59 8 4 4 -32 7 -79 7 -81 0 -87 -1 -87 -21
0 -16 4 -19 23 -14 13 4 17 3 10 -2 -13 -9 -21 -92 -29 -303 -7 -178 -7 -184
-19 -193 -6 -6 -6 -10 3 -14 6 -2 12 -9 12 -14 0 -6 -4 -7 -10 -4 -6 3 -10 -4
-10 -17 0 -18 2 -20 10 -8 8 12 10 9 10 -13 0 -25 -16 -64 -31 -77 -3 -3 -9
-20 -12 -39 -7 -32 16 -91 35 -91 4 0 8 -4 8 -10 0 -5 -7 -10 -15 -10 -8 0
-15 -1 -15 -3 0 -1 -4 -17 -9 -35 -7 -24 -6 -35 5 -47 9 -8 13 -19 10 -24 -4
-5 1 -16 9 -25 14 -14 13 -16 -11 -22 -69 -18 -366 18 -398 47 -6 5 -16 9 -24
9 -12 0 -13 -12 -8 -62 10 -87 10 -278 2 -306 -6 -18 -12 -21 -34 -16 -42 10
-116 11 -129 2 -13 -10 -18 4 -28 67 -3 22 -8 48 -11 58 -3 10 0 47 7 83 10
50 16 64 31 64 10 0 18 5 18 10 0 6 -7 10 -15 10 -20 0 -19 18 4 63 10 20 15
37 10 37 -5 0 -9 5 -9 10 0 6 7 10 15 10 10 0 15 -10 15 -29 0 -17 4 -33 10
-36 5 -3 9 -21 8 -40 -1 -19 2 -38 5 -42 4 -3 7 6 7 20 0 15 6 27 13 27 8 0 7
3 -3 10 -12 7 -12 12 -2 22 6 6 11 21 11 33 -1 16 -2 17 -6 3 -10 -41 -18 -13
-18 65 0 60 -4 89 -15 102 -14 17 -13 18 3 12 17 -6 24 7 8 17 -11 7 -11 56 1
56 5 0 7 4 3 9 -12 20 -13 91 -2 91 9 0 9 2 1 8 -15 10 -24 51 -13 58 6 3 5
12 -2 21 -10 11 -10 16 0 23 11 6 11 8 0 12 -12 4 -12 8 -1 20 10 13 10 17 0
21 -8 4 -9 8 -3 14 13 11 17 53 5 53 -6 0 -10 5 -10 10 0 6 10 10 22 10 20 0
21 1 3 20 -18 19 -17 20 6 21 20 1 21 2 4 6 -31 8 -42 23 -17 23 13 0 22 6 22
15 0 8 -5 14 -12 13 -7 -2 -12 2 -13 7 0 6 -4 15 -8 22 -4 7 0 14 10 17 25 8
27 56 3 56 -10 0 -21 8 -25 18 -5 14 -4 15 6 5 23 -23 38 -15 30 15 -6 19 -13
26 -27 24 -10 -2 -45 -6 -77 -9 -53 -5 -59 -4 -64 16 -3 11 -9 21 -14 21 -5 0
-9 8 -9 18 1 16 2 16 13 1 11 -15 20 -16 67 -7 30 6 56 12 58 13 1 1 -4 15
-12 30 -14 28 -14 29 13 46 16 9 37 19 47 22 10 3 -13 3 -52 0 l-71 -5 -6 30
c-3 16 -9 41 -12 54 -6 25 -6 25 87 31 92 5 128 13 128 26 0 10 -133 1 -145
-10 -5 -5 -26 -9 -46 -9 -28 0 -38 5 -42 19 -4 17 -12 19 -45 16 -29 -3 -44 1
-56 14 -26 28 -29 67 -8 83 16 12 17 22 11 108 -5 52 -10 104 -13 115 -2 11
-16 74 -31 140 -26 117 -27 124 -16 249 7 71 18 141 25 155 14 27 31 124 27
152 -2 20 47 215 61 243 8 14 17 17 41 12 45 -9 51 -19 37 -60 -10 -32 -9 -40
10 -71 12 -19 24 -35 26 -35 12 0 44 43 44 59 0 14 -6 17 -24 14 -32 -6 -42
22 -19 56 l18 26 3 -32 c4 -38 22 -45 22 -8 0 16 6 25 15 25 21 0 19 13 -5 28
-27 16 -15 40 23 44 29 3 30 4 14 20 -14 13 -23 15 -42 8 -17 -6 -25 -6 -25 1
0 6 9 13 20 16 13 4 20 14 20 32 1 22 2 24 11 9 5 -10 18 -22 29 -28 18 -10
19 -9 5 37 -8 27 -12 55 -9 65 12 40 -45 21 -98 -33 -14 -14 -24 -16 -50 -8
-18 5 -66 9 -105 9 l-73 0 0 -64 c0 -36 -4 -67 -8 -70 -7 -4 -8 -34 -2 -56 0
-3 9 15 18 40 11 27 25 46 36 48 16 3 17 -1 11 -38 -5 -28 -3 -45 4 -49 7 -5
5 -19 -8 -44 -10 -20 -22 -49 -26 -64 -3 -16 -12 -41 -20 -58 -7 -16 -17 -55
-22 -85 l-8 -55 -21 60 c-12 33 -34 102 -49 153 -16 52 -34 92 -41 92 -12 0
24 -157 60 -259 9 -24 16 -45 16 -47 0 -2 -14 -19 -32 -39 l-31 -36 6 -131 c4
-76 11 -134 17 -138 7 -5 6 -11 -5 -20 -16 -14 -21 -35 -5 -25 6 4 10 -7 9
-27 -1 -31 -1 -32 -9 -8 l-8 25 -1 -25 c-1 -15 -4 -20 -9 -13 -9 15 -75 27
-102 18 -24 -8 -20 -17 11 -22 45 -7 67 -33 84 -102 21 -88 27 -211 8 -204 -7
3 -11 9 -8 13 3 5 1 11 -5 15 -6 4 -8 11 -5 16 6 9 0 11 -44 13 -15 1 -25 8
-27 20 -4 27 -24 37 -59 31 -53 -9 -79 -12 -137 -13 -54 -2 -77 -17 -43 -27 8
-3 23 -8 33 -12 9 -3 23 -5 30 -4 6 1 12 -3 12 -10 0 -7 9 -9 25 -5 14 4 25 2
25 -3 0 -5 15 -12 34 -15 18 -4 44 -15 56 -26 21 -18 43 -30 142 -75 48 -22
98 -73 98 -99 0 -21 -19 -60 -20 -41 0 6 -3 6 -8 0 -8 -11 -57 -35 -72 -35 -6
0 -10 6 -10 13 0 13 -127 17 -148 3 -7 -4 -12 -2 -12 3 0 6 5 11 11 11 7 0 9
10 5 26 -5 20 -3 27 14 31 20 5 29 43 10 43 -5 0 -10 -4 -10 -8 0 -4 -15 -16
-32 -26 -18 -11 -43 -28 -55 -39 l-23 -20 -9 24 c-5 13 -10 18 -10 12 -1 -7
-10 -13 -21 -13 -13 0 -18 5 -14 15 4 8 -1 17 -10 21 -21 8 -21 44 1 44 9 0
35 9 58 20 23 11 53 21 69 22 15 1 34 10 43 20 19 22 12 25 -67 31 -58 5 -140
31 -178 58 -18 13 -22 23 -18 45 2 16 5 29 6 29 1 0 3 14 4 31 1 17 12 44 24
61 22 31 84 83 99 83 5 0 20 10 33 22 13 13 34 21 45 20 12 -2 28 4 35 12 7 9
23 16 36 16 39 0 38 20 -5 58 -22 19 -41 44 -41 54 0 11 -7 18 -20 18 -21 0
-24 10 -14 48 6 22 8 21 42 -15 20 -21 36 -46 37 -55 1 -10 16 -31 33 -48 19
-18 32 -40 32 -55 0 -14 5 -25 10 -25 6 0 10 8 10 17 0 23 -36 256 -60 383
-10 58 -22 128 -26 155 -7 56 -18 75 -44 75 -12 0 -32 -29 -64 -95 -25 -52
-46 -103 -46 -113 0 -16 -28 -64 -31 -52 -13 60 -13 79 4 136 12 43 12 55 1
75 -7 13 -13 55 -14 95 0 54 -5 77 -19 95 -27 35 -30 51 -16 79 12 22 10 30
-11 65 -27 46 -31 75 -9 75 8 0 15 9 15 20 0 25 -27 80 -39 80 -5 0 -11 21
-14 46 -2 26 -9 49 -15 53 -19 13 -42 71 -42 110 0 88 -177 281 -257 281 -12
0 -36 6 -54 14 -59 24 -110 26 -187 7z m59 -267 c8 -10 23 -14 43 -11 22 3 45
-4 82 -26 43 -25 54 -38 64 -71 6 -23 16 -57 22 -76 26 -84 27 -98 4 -104 -11
-3 -46 -6 -77 -6 -82 0 -99 -25 -53 -79 20 -24 36 -32 76 -37 58 -8 71 -27 56
-84 -18 -64 -59 -86 -110 -59 -24 13 -36 4 -22 -19 14 -22 -23 -42 -77 -42
-36 0 -39 -2 -29 -20 23 -43 -64 -51 -108 -9 -32 29 -19 45 31 41 50 -5 42 7
-23 32 -55 22 -69 33 -82 66 -6 14 -12 20 -15 13 -3 -8 -20 3 -44 30 -40 42
-40 42 -36 110 5 78 15 94 46 78 12 -7 21 -15 21 -20 0 -15 51 -31 97 -31 29
0 53 -6 64 -16 10 -9 23 -13 28 -9 17 10 13 60 -6 82 -32 35 -113 84 -148 90
-33 5 -34 6 -20 32 8 14 28 41 45 59 17 17 28 37 25 42 -3 5 0 7 8 4 8 -3 17
2 21 11 3 9 9 14 13 12 5 -3 24 3 43 13 45 23 45 23 61 4z m104 -635 c-10 -30
-43 -66 -95 -102 -61 -42 -120 -43 -174 -2 -35 27 -76 85 -59 85 5 0 26 -7 48
-15 55 -20 154 -20 161 0 4 8 11 15 17 15 6 0 19 7 29 16 13 13 21 14 31 5 11
-9 17 -8 27 4 17 21 23 19 15 -6z m107 -1566 c-2 -7 -9 -10 -14 -7 -16 10 -28
-18 -17 -38 11 -21 33 -14 25 8 -3 8 -2 14 3 14 5 0 14 -27 21 -61 7 -34 22
-69 33 -79 13 -13 21 -35 23 -69 3 -48 3 -50 -27 -56 -17 -4 -33 -13 -36 -20
-2 -8 -26 -17 -51 -20 -26 -4 -56 -9 -66 -12 -17 -5 -18 -1 -13 33 3 22 22 98
42 169 19 72 43 162 52 200 l17 70 6 -60 c4 -33 5 -66 2 -72z m1732 -688 c-1
-55 -6 -149 -10 -210 -4 -60 -6 -121 -4 -135 5 -52 2 -186 -5 -202 -5 -13 -3
-18 9 -18 21 0 21 -26 0 -34 -9 -3 -29 -6 -46 -6 l-31 0 6 48 c29 231 36 288
43 392 3 41 9 108 14 148 6 40 10 94 11 120 1 38 2 42 9 22 4 -14 6 -70 4
-125z"/>
<path d="M8750 4818 c-14 -6 -40 -18 -57 -26 -42 -18 -43 -37 -3 -28 17 3 30
1 30 -4 0 -6 -5 -10 -11 -10 -6 0 -9 -14 -7 -32 2 -25 10 -36 32 -47 41 -19
106 -4 123 29 6 13 11 25 10 26 -1 2 -22 -3 -45 -9 -38 -10 -45 -9 -53 5 -5 9
-17 24 -25 33 -9 9 -15 17 -13 19 22 16 84 36 112 36 20 0 39 5 42 10 8 14
-103 12 -135 -2z"/>
<path d="M2990 4759 c-30 -22 -57 -45 -59 -50 -5 -15 25 -45 85 -84 46 -31 60
-35 111 -34 l58 2 -50 6 c-49 7 -95 28 -95 44 0 5 9 6 20 2 28 -9 44 3 29 21
-9 11 -7 14 10 14 11 0 21 6 21 13 -1 20 -26 47 -44 47 -9 0 -16 8 -16 20 0
11 6 20 14 20 8 0 18 5 21 10 4 6 -6 10 -22 10 -16 -1 -51 -18 -83 -41z"/>
<path d="M9510 4159 c0 -3 12 -34 26 -70 38 -92 55 -246 54 -491 -1 -141 3
-209 10 -213 19 -12 23 2 29 103 11 186 -14 469 -50 553 -21 49 -69 132 -69
118z"/>
<path d="M9560 4155 c0 -4 16 -25 35 -48 54 -62 97 -242 76 -311 -5 -17 -12
-120 -16 -228 -6 -170 -5 -198 8 -198 16 0 27 111 29 296 0 60 1 141 2 179 2
119 -9 176 -43 230 -27 43 -91 99 -91 80z"/>
<path d="M9726 4050 c16 -30 19 -58 19 -205 0 -93 -4 -241 -8 -327 -8 -137 -7
-158 6 -158 8 0 18 7 21 16 3 8 9 138 12 288 8 301 2 356 -43 397 l-26 24 19
-35z"/>
<path d="M2593 3926 c-6 -8 -14 -58 -17 -112 -15 -278 -28 -571 -29 -669 l-2
-110 26 -3 c14 -2 36 6 50 17 19 15 24 29 24 68 0 26 -3 50 -6 53 -10 8 -27
222 -36 445 -10 251 -9 298 5 303 13 4 16 22 5 22 -5 -1 -13 -7 -20 -14z"/>
<path d="M3377 3619 c-4 -31 -2 -60 5 -72 8 -16 8 -22 -1 -25 -14 -5 -15 -138
-1 -213 8 -41 7 -75 -4 -134 -7 -44 -11 -83 -7 -86 11 -12 82 -31 89 -25 9 9
8 156 -1 266 -8 96 -30 221 -48 267 -5 13 -7 28 -4 33 6 10 -5 40 -15 40 -4 0
-10 -23 -13 -51z"/>
<path d="M9926 3628 c-3 -18 -12 -79 -20 -135 -19 -119 -20 -261 -4 -318 6
-22 11 -74 12 -115 1 -55 7 -87 23 -120 29 -58 42 -160 21 -160 -8 0 -19 5
-26 12 -7 7 -12 9 -12 5 0 -4 -9 -3 -21 3 -18 10 -20 9 -17 -6 2 -10 20 -22
48 -30 39 -12 46 -12 57 2 7 10 13 11 18 5 9 -16 25 -13 25 4 0 8 -6 15 -13
15 -7 0 -20 29 -30 68 -10 38 -27 87 -38 110 -18 36 -19 48 -10 91 8 36 8 59
0 78 -15 39 -15 423 0 451 13 25 15 72 1 72 -5 0 -11 -15 -14 -32z"/>
<path d="M4372 3396 c-9 -20 -11 -53 -7 -110 6 -77 4 -87 -39 -219 -49 -146
-56 -187 -31 -187 19 0 86 73 103 112 7 16 9 27 4 24 -20 -12 -22 88 -4 149
10 33 17 65 15 72 -3 7 1 21 7 33 11 20 10 21 -9 11 -19 -11 -20 -8 -23 66 -3
72 -4 75 -16 49z"/>
<path d="M9490 3203 c0 -10 -23 -34 -50 -53 -44 -31 -49 -38 -44 -65 10 -54
36 -80 83 -81 43 -1 55 10 21 19 -11 3 -20 12 -20 20 0 14 84 37 137 37 13 0
23 5 23 10 0 11 -23 14 -86 11 -25 -2 -45 2 -50 10 -5 9 -2 11 9 6 11 -4 14
-2 10 9 -3 9 2 14 17 14 17 0 21 5 17 19 -5 22 1 34 28 49 17 10 11 11 -37 12
-49 0 -58 -3 -58 -17z"/>
<path d="M741 3112 c-9 -17 -22 -80 -38 -177 -2 -16 -7 -37 -10 -45 -19 -49
-51 -194 -47 -208 5 -14 4 -14 -4 -3 -8 11 -12 6 -17 -22 -13 -66 -15 -66 175
-66 94 -1 180 -6 190 -11 24 -13 50 -13 50 0 0 16 -200 60 -273 60 -24 0 -48
5 -55 12 -9 9 -12 9 -12 0 0 -7 -5 -12 -11 -12 -15 0 -1 119 17 145 8 11 14
24 14 30 0 5 -5 3 -10 -5 -6 -9 -10 -10 -10 -3 0 6 4 14 9 17 4 3 11 22 14 43
4 21 13 68 20 105 8 37 13 69 13 71 -1 1 5 -5 13 -13 11 -13 13 -9 7 25 -3 22
-6 48 -6 58 0 22 -17 22 -29 -1z"/>
<path d="M5592 2983 c-6 -27 -13 -76 -17 -110 -6 -61 -6 -61 29 -88 38 -29 91
-32 91 -5 0 8 -7 14 -15 13 -11 -2 -15 8 -16 40 -1 47 -13 124 -21 147 -4 8
-5 19 -4 24 2 9 -18 26 -31 26 -3 0 -11 -21 -16 -47z"/>
<path d="M9774 3009 c-3 -6 -3 -37 0 -70 6 -50 4 -61 -14 -79 -25 -25 -110
-28 -130 -5 -11 13 -8 15 13 15 23 0 27 5 32 44 4 25 4 49 1 54 -6 11 -76 31
-121 34 l-30 3 3 -60 c2 -33 8 -78 12 -100 7 -29 6 -43 -3 -50 -16 -13 -19
-52 -6 -77 8 -15 13 -17 25 -8 8 8 27 10 49 6 52 -10 110 9 136 45 51 72 69
119 63 161 -6 33 -4 40 7 34 8 -4 3 1 -10 12 -15 12 -22 25 -18 36 7 18 2 22
-9 5z"/>
<path d="M4418 2982 c-39 -66 22 -191 93 -192 15 0 36 11 52 28 49 51 26 73
-26 25 -17 -16 -26 -21 -21 -13 16 27 33 83 28 92 -8 13 -24 -1 -24 -23 0 -21
-16 -26 -22 -7 -12 34 4 56 45 63 l42 7 -75 24 c-41 13 -75 24 -75 24 -1 0 -8
-13 -17 -28z"/>
<path d="M3396 2933 c-3 -4 -23 -6 -44 -5 -21 2 -53 -6 -75 -17 -21 -11 -45
-17 -53 -14 -8 3 -30 -7 -49 -21 -41 -32 -46 -67 -13 -90 25 -18 83 -22 73 -6
-4 6 -12 7 -18 4 -7 -4 -9 -4 -5 1 4 4 3 14 -3 21 -17 21 -3 44 28 44 15 0 50
7 77 15 27 8 61 15 75 15 32 0 61 38 39 51 -16 11 -23 11 -32 2z"/>
<path d="M4558 2788 c-7 -13 -23 -41 -35 -63 -13 -22 -42 -76 -63 -120 -22
-44 -58 -98 -81 -121 -44 -45 -44 -69 -2 -85 22 -8 24 -13 17 -42 -3 -17 -22
-61 -40 -97 -19 -35 -34 -72 -34 -81 0 -10 -5 -19 -12 -21 -6 -2 -15 -38 -19
-84 -4 -43 -13 -103 -19 -133 -15 -71 -10 -81 44 -81 46 0 70 15 42 26 -26 10
-18 29 16 39 17 6 34 16 36 24 4 11 0 12 -14 6 -36 -16 -78 -11 -82 9 -2 10 0
16 6 13 5 -4 7 10 5 33 -2 24 0 40 7 40 5 0 10 -5 10 -12 0 -9 3 -9 12 0 8 8
8 15 -1 26 -11 13 -8 16 14 22 14 3 29 4 32 0 4 -3 -3 -6 -15 -6 -27 0 -28
-16 -3 -30 30 -15 53 -2 49 29 -2 20 -8 26 -28 26 -14 0 -25 5 -25 10 0 6 8 9
18 8 20 -3 22 4 4 21 -7 7 -19 11 -27 9 -13 -4 -13 -3 -1 5 12 9 12 13 2 26
-12 14 -9 16 27 16 41 0 62 13 42 25 -7 4 -3 18 10 39 11 19 20 42 20 54 0 22
29 35 75 32 28 -2 63 -20 39 -20 -6 0 -16 -18 -23 -40 -6 -22 -16 -40 -22 -40
-6 0 -6 -7 1 -19 12 -24 2 -54 -16 -47 -8 3 -14 -1 -14 -9 0 -8 4 -15 9 -15 5
0 11 -10 13 -22 5 -32 28 -35 28 -4 0 31 19 114 31 138 5 10 9 25 9 33 0 8 5
15 11 15 5 0 7 5 4 10 -8 13 39 13 83 1 20 -6 30 -6 27 0 -7 11 42 32 56 23 5
-3 9 1 9 8 0 14 -16 15 -197 20 -51 2 -93 3 -93 4 0 5 70 74 75 74 4 0 19 9
34 19 14 10 45 24 69 30 25 7 42 18 42 26 0 19 -31 55 -47 55 -19 0 -16 27 5
39 14 8 10 10 -21 11 -22 0 -52 -9 -75 -23 -20 -13 -45 -27 -56 -30 -15 -6
-17 -4 -12 15 3 13 6 26 6 31 0 4 6 7 14 7 10 0 12 7 8 22 -3 14 -2 19 6 14 8
-5 12 2 12 18 0 16 6 26 14 26 8 0 17 15 20 35 11 55 -12 75 -36 33z"/>
<path d="M9710 2683 c-32 -11 -63 -14 -107 -10 -35 4 -63 2 -63 -2 0 -20 30
-31 76 -26 27 2 41 2 31 -1 -21 -7 -18 -51 7 -89 14 -22 14 -23 -8 -29 -13 -3
-26 -15 -29 -26 -3 -11 -10 -20 -16 -20 -16 0 -13 26 5 44 14 15 14 20 -3 61
-10 25 -21 45 -25 45 -9 0 -9 -10 1 -73 l8 -48 -84 7 -84 7 6 -29 c4 -16 9
-49 12 -73 6 -42 6 -43 19 -20 12 22 12 19 8 -26 -7 -70 5 -148 21 -142 9 4
15 -35 24 -156 7 -89 16 -191 22 -227 22 -153 39 -295 54 -443 14 -146 27
-197 48 -197 5 0 6 8 3 18 -3 9 -12 105 -21 212 -8 107 -24 260 -34 340 -31
232 -53 471 -49 525 3 46 4 43 21 -55 46 -271 87 -595 116 -930 5 -60 9 -75
24 -78 20 -4 21 12 7 143 -5 50 -14 144 -20 210 -5 66 -14 156 -20 200 -23
188 -51 379 -60 418 -12 51 -13 184 -2 191 4 2 8 -3 9 -12 1 -9 13 -73 27
-142 25 -122 58 -370 71 -520 13 -162 46 -464 51 -469 2 -3 11 2 18 10 11 11
12 30 5 89 -5 41 -20 197 -34 345 -14 149 -32 306 -39 350 -8 44 -19 116 -26
160 -6 44 -13 92 -15 108 -3 15 -1 27 3 27 5 0 13 -12 19 -27 11 -28 11 -28 6
5 -5 27 1 43 32 88 41 59 41 58 9 68 -17 5 -26 -2 -48 -34 -14 -22 -26 -45
-26 -52 -1 -8 -6 -5 -15 6 -15 20 -9 40 21 71 19 18 28 82 13 91 -5 3 -9 10
-9 16 0 6 10 2 23 -10 13 -12 29 -22 35 -22 6 0 15 -12 18 -27 4 -16 15 -38
26 -49 19 -21 19 -22 -13 -72 -30 -49 -32 -72 -5 -72 16 0 43 38 52 74 9 39
28 45 19 7 -7 -31 2 -40 21 -21 7 7 16 5 29 -4 16 -11 17 -17 7 -29 -9 -10
-10 -17 -2 -22 16 -10 32 5 27 25 -2 10 -1 24 4 31 11 18 -21 31 -38 17 -14
-11 -16 -3 -14 42 2 25 -2 30 -99 107 -62 49 -78 65 -83 83 -9 35 27 34 65 -2
19 -18 62 -55 96 -81 45 -34 62 -54 62 -71 0 -39 75 -51 111 -17 19 18 19 18
-31 13 -49 -4 -50 -4 -61 26 -6 17 -27 41 -47 55 -63 42 -125 106 -118 122 3
8 4 15 3 15 -1 -1 -22 -8 -47 -17z"/>
<path d="M5323 2654 c-18 -8 -33 -21 -33 -29 0 -8 -4 -14 -9 -12 -16 4 -16 -8
1 -32 10 -14 21 -20 29 -16 8 5 10 4 5 -4 -4 -6 0 -18 8 -27 9 -8 16 -22 16
-29 0 -23 57 -56 123 -71 34 -8 66 -19 71 -24 12 -12 46 -13 46 -1 0 5 -15 20
-32 33 -18 14 -51 43 -73 66 -22 22 -57 47 -78 55 -20 9 -37 21 -37 28 0 7 9
5 26 -6 15 -9 35 -14 47 -11 32 8 74 47 82 76 l7 25 -29 -28 c-23 -21 -37 -26
-63 -24 -19 3 -36 9 -38 16 -7 22 -36 28 -69 15z"/>
<path d="M412 2475 c-7 -14 -12 -61 -12 -103 1 -67 4 -82 28 -116 15 -21 36
-44 47 -50 11 -6 23 -15 26 -20 9 -11 70 3 92 22 9 8 17 24 17 35 0 14 -4 17
-17 12 -37 -16 -64 -17 -79 -4 -22 18 -38 59 -35 88 2 13 -3 27 -10 32 -9 5
-14 27 -14 56 0 72 -22 96 -43 48z"/>
<path d="M3935 2093 c6 -55 13 -83 39 -163 6 -20 9 -59 5 -90 -6 -60 -3 -192
6 -228 4 -18 1 -25 -14 -29 -20 -5 -38 -33 -22 -33 20 0 40 -658 21 -670 -17
-10 -18 -258 -2 -363 12 -78 12 -91 -2 -121 -9 -19 -25 -36 -36 -39 -13 -3
-18 -10 -14 -21 4 -9 1 -16 -6 -16 -9 0 -11 -12 -6 -42 3 -24 6 -81 7 -128 1
-47 4 -100 7 -118 4 -29 8 -32 38 -32 l34 0 -6 52 c-3 30 1 98 10 156 8 57 13
109 10 117 -4 8 1 38 10 67 9 29 23 107 30 173 13 113 13 164 1 330 -33 420
-40 627 -22 670 16 40 12 167 -7 235 -9 30 -18 80 -21 110 -11 122 -40 240
-58 240 -5 0 -6 -24 -2 -57z"/>
<path d="M5115 1244 c-22 -8 -48 -18 -57 -21 -10 -3 -18 -9 -18 -13 0 -4 -13
-13 -29 -20 -23 -9 -34 -9 -52 0 -22 12 -22 12 -15 -39 5 -35 -1 -94 -19 -195
-14 -80 -25 -161 -25 -180 0 -20 -4 -36 -10 -36 -6 0 -10 -30 -10 -69 0 -39
-4 -72 -9 -76 -6 -3 -8 -94 -7 -220 4 -205 3 -215 -15 -215 -15 0 -19 -7 -19
-40 0 -36 3 -40 24 -40 20 0 25 -6 28 -32 2 -19 6 -27 10 -18 22 61 28 117 38
360 22 575 25 601 54 665 14 32 26 66 26 77 0 10 7 21 15 24 8 4 15 11 15 18
1 14 82 66 103 66 9 0 19 5 22 10 8 13 -2 12 -50 -6z"/>
</g>
</svg>
