<?xml version="1.0" standalone="no"?>
<!DOCTYPE svg PUBLIC "-//W3C//DTD SVG 20010904//EN"
 "http://www.w3.org/TR/2001/REC-SVG-20010904/DTD/svg10.dtd">
<svg version="1.0" xmlns="http://www.w3.org/2000/svg"
 width="600.000000pt" height="600.000000pt" viewBox="0 0 600.000000 600.000000"
 preserveAspectRatio="xMidYMid meet">
<metadata>
Created by potrace 1.16, written by Peter Selinger 2001-2019
</metadata>
<g transform="translate(0.000000,600.000000) scale(0.100000,-0.100000)"
fill="#000000" stroke="none">
<path d="M3095 4813 c-378 -32 -805 -138 -1060 -265 -96 -48 -231 -136 -265
-173 l-25 -27 40 20 c69 34 292 112 412 143 263 67 523 99 824 99 396 0 655
-44 994 -170 470 -174 807 -449 925 -753 50 -126 63 -220 57 -396 -6 -191 -25
-270 -102 -426 -141 -283 -401 -494 -785 -638 -350 -131 -746 -161 -1092 -82
-212 47 -350 117 -474 240 -124 122 -184 258 -184 418 0 71 2 76 30 101 17 14
47 30 68 36 24 6 352 10 947 10 571 0 923 4 946 10 19 6 46 21 59 35 21 22 22
31 17 88 -3 35 -17 94 -31 132 -78 205 -235 355 -523 499 -258 129 -634 221
-1043 257 -165 14 -518 6 -680 -16 -592 -80 -1163 -308 -1502 -599 -165 -142
-302 -358 -350 -551 -32 -130 -32 -371 0 -499 55 -219 192 -427 386 -586 352
-287 810 -450 1451 -516 243 -25 762 -26 930 -1 368 54 683 141 900 249 95 48
230 136 265 173 l25 26 -70 -31 c-104 -47 -345 -125 -475 -153 -228 -51 -380
-68 -646 -74 -448 -10 -713 31 -1079 167 -470 174 -807 449 -925 753 -50 126
-63 220 -57 396 6 191 25 270 102 426 187 375 597 634 1175 741 130 24 465 25
600 1 125 -22 256 -60 345 -101 261 -120 415 -336 415 -579 0 -71 -2 -76 -30
-101 -17 -14 -47 -30 -68 -36 -24 -6 -352 -10 -947 -10 -562 0 -923 -4 -944
-10 -56 -16 -81 -46 -81 -99 0 -63 23 -143 64 -226 166 -335 657 -575 1376
-672 192 -26 651 -26 835 0 724 103 1364 395 1656 757 86 106 171 272 201 395
32 130 32 371 0 500 -143 570 -792 978 -1732 1089 -252 30 -690 45 -875 29z"/>
</g>
</svg>
